<svg id="Calque_1" data-name="Calque 1" xmlns="http://www.w3.org/2000/svg" viewBox="0 0 698.5 239.42"><defs><style>.cls-1{fill:#74faaa;}.cls-2{fill:#fff;}</style></defs><title>titre</title><polygon class="cls-1" points="153.8 0.71 132.99 0.71 119.63 44.08 181.89 44.08 184.8 31.13 145.34 31.13 153.8 0.71"/><polygon class="cls-1" points="258.18 0.71 197.86 0.71 188.51 44.08 253.17 44.08 254.64 32.74 212.41 32.74 213.54 26.67 253.97 26.67 255.35 16.14 215.5 16.14 216.49 10.85 256.87 10.85 258.18 0.71"/><polygon class="cls-1" points="347.68 0.71 288.52 0.71 284.76 44.08 306.63 44.08 307.63 26.79 346.78 26.79 346.82 16.14 308.24 16.14 308.54 10.85 347.65 10.85 347.68 0.71"/><path class="cls-1" d="M375.16,25.61l8.56-14.77,10.19,14.77ZM397.6.71h-28L342.2,44.08h22.41l4.24-7.35H401.6l5,7.35h24.2L397.6.71"/><path class="cls-1" d="M462.87,0h-6.52a99.39,99.39,0,0,0-15.48,1,30.78,30.78,0,0,0-9.28,2.74,9.91,9.91,0,0,0-4.4,4,8.31,8.31,0,0,0-.81,4.88l.05.51a9.91,9.91,0,0,0,1.75,4.72,13.43,13.43,0,0,0,4.82,4,31.84,31.84,0,0,0,8.82,2.91,81.21,81.21,0,0,0,13.72,1.31l10.52.24c3,.07,5.31.22,7.15.43a20.24,20.24,0,0,1,4.16.82,4.55,4.55,0,0,1,2,1.19,3,3,0,0,1,.69,1.54v.06a2.33,2.33,0,0,1-.19,1.56,3.27,3.27,0,0,1-1.7,1.34,15.32,15.32,0,0,1-4.07.94,61.39,61.39,0,0,1-7.28.35h-.69A37.77,37.77,0,0,1,458.6,34a14.65,14.65,0,0,1-4.5-1.6,6.86,6.86,0,0,1-2.26-2,5.84,5.84,0,0,1-.85-2H427.21l.06.59a12.58,12.58,0,0,0,1.53,4.91A14.9,14.9,0,0,0,434,39.06a33.87,33.87,0,0,0,11.11,4.18,92.82,92.82,0,0,0,19.26,1.71h7.09a101.26,101.26,0,0,0,18.21-1.36A28.69,28.69,0,0,0,499.83,40,9.46,9.46,0,0,0,504,35.11a10.45,10.45,0,0,0,.14-5.53l-.18-.83A12,12,0,0,0,501.09,23a16,16,0,0,0-6-4,41.37,41.37,0,0,0-9.61-2.39,115.44,115.44,0,0,0-13.72-1l-10.06-.17c-2.63,0-4.71-.16-6.36-.34a19.6,19.6,0,0,1-3.78-.71,4.5,4.5,0,0,1-1.85-1,2,2,0,0,1-.59-1.2v-.06A1.71,1.71,0,0,1,449.3,11a2.66,2.66,0,0,1,1.46-1,15.34,15.34,0,0,1,3.57-.68c1.64-.16,3.76-.25,6.53-.25h.74a45.58,45.58,0,0,1,7.17.48,15.91,15.91,0,0,1,4.18,1.18,5.83,5.83,0,0,1,2,1.46,3.83,3.83,0,0,1,.74,1.35h23.07l-.09-.45a10.74,10.74,0,0,0-2.42-4.89,16.69,16.69,0,0,0-6-4.19A42.11,42.11,0,0,0,479.61,1.1,109.69,109.69,0,0,0,462.87,0"/><polygon class="cls-1" points="567.94 0.71 500.07 0.71 502.49 12.04 526.4 12.04 534.33 44.08 556.43 44.08 547.55 12.04 571.46 12.04 567.94 0.71"/><path class="cls-1" d="M39.19,89.41a36.21,36.21,0,0,1-7.65-.69,11.91,11.91,0,0,1-4.46-1.8,4.4,4.4,0,0,1-1.81-2.5,4.48,4.48,0,0,1,.29-2.8l.09-.21a7.18,7.18,0,0,1,1.16-1.9A9.56,9.56,0,0,1,28.46,78a13.77,13.77,0,0,1,1.94-1.19,19.19,19.19,0,0,1,2.07-.89l18,12.65q-1.22.21-2.55.36t-2.74.26q-1.42.1-2.92.16t-3.08.05m9.87-22.33c-1.13-.8-2.09-1.51-2.87-2.14a13,13,0,0,1-1.84-1.74,3.64,3.64,0,0,1-.83-1.56A2.72,2.72,0,0,1,43.7,60a3.69,3.69,0,0,1,.89-1.31,5.39,5.39,0,0,1,1.73-1.06A12.23,12.23,0,0,1,49.15,57a29.77,29.77,0,0,1,4.21-.26,27.23,27.23,0,0,1,4.54.31,7,7,0,0,1,2.58.87,2.09,2.09,0,0,1,1,1.34A3.11,3.11,0,0,1,61.25,61a4.84,4.84,0,0,1-1.46,1.95,11.81,11.81,0,0,1-2.65,1.62,29.25,29.25,0,0,1-3.64,1.37c-1.36.42-2.85.82-4.44,1.19m10-18.67H54.71a83.75,83.75,0,0,0-13.79,1A37.34,37.34,0,0,0,31.73,52a18.47,18.47,0,0,0-5.56,3.71A13.38,13.38,0,0,0,23.3,60l-.22.52a9.92,9.92,0,0,0-.78,2.87,7.53,7.53,0,0,0,.22,2.8,8.67,8.67,0,0,0,1.33,2.74,14.26,14.26,0,0,0,2.55,2.67,70.4,70.4,0,0,0-9.24,1.7,38.66,38.66,0,0,0-7.3,2.64,21.44,21.44,0,0,0-5.33,3.61,14.39,14.39,0,0,0-3.31,4.63l-.3.69a8.6,8.6,0,0,0-.72,5.65,8.33,8.33,0,0,0,4.06,4.92c2.34,1.44,5.75,2.64,10.49,3.48a108.6,108.6,0,0,0,18.52,1.32c3.18,0,6.14-.12,8.9-.33s5.32-.51,7.7-.89,4.56-.82,6.59-1.31,3.87-1,5.58-1.6a28.62,28.62,0,0,0,4,1.72A34.88,34.88,0,0,0,70.85,99a53.42,53.42,0,0,0,5.75.73c2.12.16,4.45.24,7,.24l10-12.73c-1.4,0-2.7,0-3.91,0s-2.34-.08-3.4-.15-2.05-.17-3-.3-1.83-.28-2.7-.47A57.29,57.29,0,0,0,86,82a45.39,45.39,0,0,0,4.35-4.5,34.37,34.37,0,0,0,3.28-4.61,25.36,25.36,0,0,0,2.15-4.62H76.08c-.26.74-.6,1.59-1,2.52a29.71,29.71,0,0,1-1.6,3A30.11,30.11,0,0,1,71.15,77,30.45,30.45,0,0,1,68,80.33L55.48,71.52A82.87,82.87,0,0,0,66.11,69.4a37.17,37.17,0,0,0,7.31-2.78A17.08,17.08,0,0,0,78,63.31a10.45,10.45,0,0,0,2.3-3.71l.11-.32a7,7,0,0,0,.39-3.66A5.72,5.72,0,0,0,78.4,52.1a16.85,16.85,0,0,0-6.69-2.64,63,63,0,0,0-12.62-1"/><path class="cls-1" d="M177,48.54H174a93.32,93.32,0,0,0-22.38,2.37,44.57,44.57,0,0,0-14.15,5.94,28.46,28.46,0,0,0-7.93,7.77,27.37,27.37,0,0,0-3.59,7.76l-.56,1.94a21.18,21.18,0,0,0-.84,8,14.8,14.8,0,0,0,3.68,8.43c2.34,2.66,6,5,11.41,6.73s12.73,2.75,22.29,2.75h3.26a96.73,96.73,0,0,0,23.08-2.45,45.79,45.79,0,0,0,14.18-5.84,25,25,0,0,0,7.3-7,16.24,16.24,0,0,0,2.54-6.07l.19-1.08H188.52a8.75,8.75,0,0,1-1.11,1.78,12.58,12.58,0,0,1-3.26,2.8,22.46,22.46,0,0,1-6.54,2.6,46.34,46.34,0,0,1-10.95,1.15,34.13,34.13,0,0,1-9.85-1.22,12.79,12.79,0,0,1-5.51-3.08,7.75,7.75,0,0,1-2.15-4.07,9.71,9.71,0,0,1,.2-4.21l.21-.8a12.67,12.67,0,0,1,1.87-4.13,13.31,13.31,0,0,1,3.95-3.67,21.87,21.87,0,0,1,6.72-2.63,46,46,0,0,1,10.23-1,43.58,43.58,0,0,1,10,1,14.72,14.72,0,0,1,5.32,2.25A6.48,6.48,0,0,1,189.82,67a6,6,0,0,1,.48,1.73H214l.15-.86a12,12,0,0,0-.38-5.72,13.39,13.39,0,0,0-4.57-6.37c-2.51-2-6.14-3.83-11.37-5.13A86.93,86.93,0,0,0,177,48.54"/><path class="cls-1" d="M303.16,49.42H280.9l-2,21.5a14.54,14.54,0,0,1-1.19,4.65,12.65,12.65,0,0,1-3.23,4.36,16.41,16.41,0,0,1-6,3.24,31.51,31.51,0,0,1-9.44,1.27,29.26,29.26,0,0,1-9.27-1.27,12.13,12.13,0,0,1-5.26-3.24,9.23,9.23,0,0,1-2.2-4.36,13.52,13.52,0,0,1-.1-4.65l3-21.5H222.9l-3.87,23A25,25,0,0,0,219,80.7a18.74,18.74,0,0,0,4.14,9A25.35,25.35,0,0,0,234.39,97c5.3,1.87,12.25,3,21.3,3H259a68.38,68.38,0,0,0,21.52-3,34.73,34.73,0,0,0,12.91-7.32,25.67,25.67,0,0,0,8.26-17.34l1.42-23"/><path class="cls-1" d="M332.66,69.33l.18-8.37h25.94a14.36,14.36,0,0,1,3.22.32,6.32,6.32,0,0,1,2.13.87,3.53,3.53,0,0,1,1.19,1.3,3.62,3.62,0,0,1,.39,1.61v.06a3.6,3.6,0,0,1-.33,1.65,3.44,3.44,0,0,1-1.16,1.34,6.16,6.16,0,0,1-2.12.9,14,14,0,0,1-3.21.33H332.66m31.16-19.91h-53l-2.56,49.79H332l.39-17.79h22.22a25.69,25.69,0,0,1,5.8.56,10.18,10.18,0,0,1,3.85,1.67,6.61,6.61,0,0,1,2.16,2.78,10.55,10.55,0,0,1,.73,3.89l.14,6.12c0,.37,0,.7.06,1a4.62,4.62,0,0,0,.14.75,2.36,2.36,0,0,0,.24.58,2.2,2.2,0,0,0,.38.46h24.24l0-.36a6.17,6.17,0,0,1-.47-.8,7.08,7.08,0,0,1-.43-1.14,12.55,12.55,0,0,1-.35-1.66c-.1-.66-.17-1.43-.22-2.34l-.4-7.65a11,11,0,0,0-3.83-8,15.48,15.48,0,0,0-4-2.51,23.66,23.66,0,0,0-5.14-1.54,22.09,22.09,0,0,0,3.76-1.08,16.81,16.81,0,0,0,3.86-2.07A10.19,10.19,0,0,0,388,66.87a8.34,8.34,0,0,0,1-4.55l0-.71a9.77,9.77,0,0,0-1.72-5.21,12.2,12.2,0,0,0-4.66-3.82,27.71,27.71,0,0,0-7.75-2.35,66.41,66.41,0,0,0-11-.81"/><polygon class="cls-1" points="417.66 49.42 395.48 49.42 398.52 99.21 422.17 99.21 417.66 49.42"/><path class="cls-1" d="M474.08,86.09a46.67,46.67,0,0,1-11.28-1.21,22.47,22.47,0,0,1-7.21-3.06,13.1,13.1,0,0,1-3.93-4,10.59,10.59,0,0,1-1.46-4.13l-.1-.8a8.85,8.85,0,0,1,.35-4,8,8,0,0,1,2.77-3.73,16.29,16.29,0,0,1,6.22-2.74,46.16,46.16,0,0,1,10.74-1.06,49.86,49.86,0,0,1,10.94,1.06,23.2,23.2,0,0,1,7.1,2.74,13,13,0,0,1,4,3.73,10.59,10.59,0,0,1,1.67,4l.17.94a9,9,0,0,1-.15,4.17,8.13,8.13,0,0,1-2.67,4,15.82,15.82,0,0,1-6.26,3,43.39,43.39,0,0,1-10.91,1.17M470,48.54h-3.52c-9.43,0-16.69.9-22.26,2.39s-9.52,3.59-12.24,6a16.28,16.28,0,0,0-5,7.78,20.28,20.28,0,0,0-.6,7.7l.2,2a22.87,22.87,0,0,0,9.12,16.33A40.27,40.27,0,0,0,450,97.45c6.36,1.72,14.38,2.76,24.46,2.76h3.77c10.06,0,17.74-1,23.54-2.76s9.68-4.08,12.26-6.74a15.53,15.53,0,0,0,4.27-8.41,21.14,21.14,0,0,0-.32-7.91l-.43-2a24.74,24.74,0,0,0-3-7.7A25.63,25.63,0,0,0,507,56.9a42.75,42.75,0,0,0-14.1-6A96.28,96.28,0,0,0,470,48.54"/><path class="cls-1" d="M598.55,49.42H576.29l6.48,21.5a13.62,13.62,0,0,1,.64,4.65,7.89,7.89,0,0,1-1.52,4.36,9.82,9.82,0,0,1-4.72,3.24,26.73,26.73,0,0,1-8.94,1.27,34.28,34.28,0,0,1-9.77-1.27,19.87,19.87,0,0,1-6.53-3.24A15.79,15.79,0,0,1,548,75.57a17.1,17.1,0,0,1-1.93-4.65l-5.46-21.5H518.29l5.15,23a30.63,30.63,0,0,0,3.2,8.31,31.51,31.51,0,0,0,7.68,9A42,42,0,0,0,548.5,97a75.75,75.75,0,0,0,22.49,3h3.35c8.8,0,15.42-1.15,20.34-3s8.07-4.44,10-7.32a16.4,16.4,0,0,0,2.79-9,25,25,0,0,0-1.34-8.31l-7.6-23"/><path class="cls-1" d="M644.63,48.6h-7a94.51,94.51,0,0,0-16.28,1.16,25.26,25.26,0,0,0-9.17,3.13,7.77,7.77,0,0,0-3.61,4.61,9.85,9.85,0,0,0,.46,5.59l.2.58a15.48,15.48,0,0,0,3.16,5.41,20.77,20.77,0,0,0,6.27,4.64,40.59,40.59,0,0,0,10.26,3.34A87.49,87.49,0,0,0,644,78.56l11.34.27c3.21.08,5.75.25,7.78.49a23.67,23.67,0,0,1,4.69.94,6.63,6.63,0,0,1,2.48,1.37,4.81,4.81,0,0,1,1.16,1.76l0,.07a2.87,2.87,0,0,1,.24,1.8,2.53,2.53,0,0,1-1.45,1.54,13.05,13.05,0,0,1-4.1,1.08,59,59,0,0,1-7.71.41h-.74a40.52,40.52,0,0,1-8.28-.75,19.08,19.08,0,0,1-5.27-1.85,10.8,10.8,0,0,1-3-2.35,9.34,9.34,0,0,1-1.46-2.27H614.26l.23.68a19.45,19.45,0,0,0,3,5.65,23.69,23.69,0,0,0,7,6,44.45,44.45,0,0,0,13.08,4.81,99.83,99.83,0,0,0,21.15,2h7.61a95.42,95.42,0,0,0,19.17-1.57c4.72-1,7.9-2.41,9.93-4.09a7.83,7.83,0,0,0,3-5.68,13.77,13.77,0,0,0-1.41-6.36l-.42-1A19.44,19.44,0,0,0,692,75a23.93,23.93,0,0,0-7.54-4.54,50.14,50.14,0,0,0-11-2.74,122.42,122.42,0,0,0-15-1.14l-10.82-.2c-2.82,0-5.09-.18-6.91-.39a22.75,22.75,0,0,1-4.24-.81A6.41,6.41,0,0,1,634.27,64a3.22,3.22,0,0,1-1-1.38l0-.06a1.69,1.69,0,0,1,1.15-2.49,13.39,13.39,0,0,1,3.63-.78A65.75,65.75,0,0,1,645,59h.79a48.16,48.16,0,0,1,7.81.55,19.75,19.75,0,0,1,4.8,1.35A8.84,8.84,0,0,1,661,62.59a6.22,6.22,0,0,1,1.17,1.54h24.69l-.23-.52a17.29,17.29,0,0,0-4-5.6,25.2,25.2,0,0,0-7.55-4.8,51.92,51.92,0,0,0-12.28-3.35,115.55,115.55,0,0,0-18.21-1.26"/><path class="cls-2" d="M121,144.42l5.92-22H140a40.21,40.21,0,0,1,10.49,1.13,11.66,11.66,0,0,1,5.28,2.74,5.91,5.91,0,0,1,1.73,3.4,8.34,8.34,0,0,1-.19,3.06l-.11.47a11.52,11.52,0,0,1-1.22,3.17,11.78,11.78,0,0,1-3.33,3.67,19.83,19.83,0,0,1-6.76,3,45.16,45.16,0,0,1-11.47,1.27H121m28.72-39H99.54L81.67,163.14h53.78a116.1,116.1,0,0,0,25.81-2.52A51.73,51.73,0,0,0,177.92,154a29.93,29.93,0,0,0,9.34-9.3,30.44,30.44,0,0,0,4-10.58l.45-2.4a20.8,20.8,0,0,0-.39-10.38,16.75,16.75,0,0,0-6.23-8.35c-3.19-2.36-7.57-4.26-13.39-5.57a101.32,101.32,0,0,0-22-2"/><polygon class="cls-2" points="276.88 105.37 201.35 105.37 190.75 163.14 272.05 163.14 273.58 146.01 226.97 146.01 227.71 140.93 273.16 140.93 274.59 125.12 229.99 125.12 230.63 120.73 275.5 120.73 276.88 105.37"/><polygon class="cls-2" points="393.51 105.37 307.45 105.37 306.46 124.36 334.13 124.36 333.41 163.14 367.69 163.14 366.88 124.36 394.55 124.36 393.51 105.37"/><path class="cls-2" d="M451.31,144.89a34.26,34.26,0,0,1-9-1.08,18.84,18.84,0,0,1-6.05-2.76,12.2,12.2,0,0,1-3.48-3.73,9.78,9.78,0,0,1-1.32-4l-.09-.93a8.16,8.16,0,0,1,.49-3.79,8.06,8.06,0,0,1,2.61-3.42,14.53,14.53,0,0,1,5.35-2.47,35,35,0,0,1,8.72-.95,37.53,37.53,0,0,1,8.89.95,19.37,19.37,0,0,1,6,2.47,11.73,11.73,0,0,1,3.5,3.42,9.39,9.39,0,0,1,1.44,3.79l.15,1.08a8.52,8.52,0,0,1-.35,4,8.34,8.34,0,0,1-2.58,3.67,14.28,14.28,0,0,1-5.42,2.69,32.92,32.92,0,0,1-8.84,1m-2.69-40.61h-4.21c-10.57,0-18.81,1-25.23,2.6s-11.06,4-14.35,6.65a19.8,19.8,0,0,0-6.37,9,24.47,24.47,0,0,0-1.16,9.45l.13,2.33a26.81,26.81,0,0,0,2.32,9.67,26.1,26.1,0,0,0,7.86,9.77c3.88,3,9.17,5.7,16.32,7.61s16.22,3.07,27.54,3.07H456c11.34,0,20.11-1.15,26.84-3.07s11.34-4.58,14.49-7.61a18.82,18.82,0,0,0,5.49-9.77,24.89,24.89,0,0,0,0-9.67l-.43-2.33a28.75,28.75,0,0,0-3.43-9.45,28,28,0,0,0-8.53-9,47.67,47.67,0,0,0-16-6.65,111.61,111.61,0,0,0-25.85-2.6"/><polygon class="cls-2" points="599.82 105.37 567.82 105.37 574.64 130.63 538.35 105.37 502.22 105.37 513.14 163.14 547.42 163.14 540.6 133.26 582.8 163.14 617.72 163.14 599.82 105.37"/><polygon class="cls-2" points="177.38 170.32 97.32 170.32 77.73 238.14 114.4 238.14 120.82 212.44 168.32 212.44 172.05 193.6 125.53 193.6 126.86 188.28 173.84 188.28 177.38 170.32"/><path class="cls-2" d="M287.56,170.32H252.8l-3,26.67a19.93,19.93,0,0,1-1.41,5.58,15,15,0,0,1-3.42,5,16.4,16.4,0,0,1-6.07,3.63,28.28,28.28,0,0,1-9.34,1.4h-.19a25.57,25.57,0,0,1-9.09-1.4,11.29,11.29,0,0,1-5.11-3.63,10.73,10.73,0,0,1-2-5,18.87,18.87,0,0,1,.1-5.58l4-26.67H182.57l-5.77,30.19a40.8,40.8,0,0,0-.67,11.67,25.61,25.61,0,0,0,4.67,12.68c2.94,4,7.5,7.68,14.37,10.3s16.12,4.26,28.3,4.26h4.91c12.18,0,21.83-1.62,29.45-4.26a44,44,0,0,0,17.14-10.3A34.81,34.81,0,0,0,283,212.18a42.53,42.53,0,0,0,2.42-11.67l2.14-30.19"/><polygon class="cls-2" points="385.45 170.32 292.47 170.32 291.01 192.53 320.97 192.53 319.51 238.14 356.77 238.14 356.41 192.53 386.36 192.53 385.45 170.32"/><path class="cls-2" d="M495.35,170.32H460.6L464,197a18.16,18.16,0,0,1-.08,5.58,11.17,11.17,0,0,1-2.23,5,11.91,11.91,0,0,1-5.21,3.63,25.35,25.35,0,0,1-9,1.4h-.19a28.49,28.49,0,0,1-9.42-1.4,15.58,15.58,0,0,1-6-3.63,14.29,14.29,0,0,1-3.23-5,20.25,20.25,0,0,1-1.23-5.58l-2.31-26.67H390.36l1.41,30.19a42.53,42.53,0,0,0,2.1,11.67,33.59,33.59,0,0,0,7.69,12.68,42.29,42.29,0,0,0,16.82,10.3c7.54,2.64,17.14,4.26,29.31,4.26h4.91c12.17,0,21.44-1.62,28.43-4.26s11.62-6.26,14.68-10.3a26.26,26.26,0,0,0,5-12.68,40.09,40.09,0,0,0-.36-11.67l-5-30.19"/><path class="cls-2" d="M541.36,196.19l-1.78-8.35h25.71a14.05,14.05,0,0,1,3.07.3,7.18,7.18,0,0,1,2.19.85,4.73,4.73,0,0,1,1.42,1.31,5,5,0,0,1,.76,1.7,3.89,3.89,0,0,1,.09,1.67,2.37,2.37,0,0,1-.75,1.33,4.15,4.15,0,0,1-1.78.88,11.91,11.91,0,0,1-3,.32H541.36M576,170.32H501.26l11.79,67.81h37.26l-4.87-22.81h20.28a24.41,24.41,0,0,1,6.67.83,14.32,14.32,0,0,1,4.84,2.36,12.87,12.87,0,0,1,3.28,3.73,18.44,18.44,0,0,1,2,4.93l2.18,8.72c.07.27.13.51.19.74a5.55,5.55,0,0,0,.21.61,2.6,2.6,0,0,0,.27.5,2,2,0,0,0,.39.41H624l-.17-.59a14,14,0,0,1-.87-1.17,13.13,13.13,0,0,1-.81-1.4,18.52,18.52,0,0,1-.78-1.8c-.26-.68-.51-1.46-.77-2.35L617.51,220a23.3,23.3,0,0,0-2.85-6.28,21.9,21.9,0,0,0-4.55-5,26,26,0,0,0-6.26-3.71,36.73,36.73,0,0,0-8-2.3,23.32,23.32,0,0,0,4.81-1.56,15.68,15.68,0,0,0,4.44-2.93,9.91,9.91,0,0,0,2.75-4.54,11.61,11.61,0,0,0-.22-6.35l-.23-.79a19.33,19.33,0,0,0-4.45-8,21.59,21.59,0,0,0-7.2-4.94,37.09,37.09,0,0,0-9.2-2.54,69.15,69.15,0,0,0-10.5-.73"/></svg>